<svg width="202" height="20" viewBox="0 0 202 20" fill="#2A7AE4" xmlns="http://www.w3.org/2000/svg">
<path d="M49.1272 11.3595C50.1124 10.5226 50.6111 9.25261 50.6111 7.58749C50.6111 4.52125 48.8528 2.76294 45.7865 2.76294H35.7803V17.228H38.1926V5.17521H45.7865C47.5224 5.17521 48.1988 5.85162 48.1988 7.58749C48.1988 9.32336 47.5224 9.99976 45.7865 9.99976H40.8257L47.6915 17.228H50.7992L46.2714 12.3965C47.443 12.3223 48.4024 11.9738 49.1272 11.3577V11.3595Z" fill="#2A7AE4"/>
<path d="M60.3617 2.60071H60.3566C57.2248 2.60071 54.9919 3.55319 53.7168 5.42711C52.6677 6.97144 52.5469 8.77634 52.5469 9.99973C52.5469 11.2231 52.6677 13.028 53.7168 14.5723C54.9902 16.4463 57.2248 17.397 60.3566 17.3987C60.3583 17.3987 60.36 17.3987 60.3617 17.3987C63.4953 17.3987 65.7316 16.4497 67.0084 14.5775C68.0645 13.0297 68.187 11.2248 68.187 9.99973C68.187 8.77461 68.0645 6.96971 67.0084 5.42192C65.7298 3.54974 63.4936 2.60071 60.36 2.60071H60.3617ZM65.0172 13.2161C64.2165 14.3894 62.6498 14.9848 60.3617 14.9848H60.3566C58.072 14.9848 56.5087 14.3877 55.7115 13.2144C55.0437 12.2325 54.9574 10.9798 54.9574 9.998C54.9574 9.01618 55.0437 7.76345 55.7115 6.78163C56.5087 5.60828 58.072 5.01299 60.3566 5.01126H60.36C62.6481 5.01126 64.2148 5.60656 65.0155 6.77992C65.6867 7.76519 65.773 9.01618 65.773 9.998C65.773 10.9798 65.6867 12.2308 65.0155 13.2161H65.0172Z" fill="#2A7AE4"/>
<path d="M149.832 9.66673C149.017 9.10421 147.909 8.81949 146.536 8.81949H141.894C139.561 8.81949 139.366 7.87219 139.366 6.98528C139.366 6.09836 139.561 5.15105 141.894 5.15105H150.741V2.78882H141.894C140.522 2.78882 139.413 3.07352 138.599 3.63604C137.87 4.13989 137.002 5.12862 137.002 6.98528C137.002 8.84194 137.87 9.83065 138.599 10.3345C139.413 10.897 140.521 11.1817 141.894 11.1817H146.536C147.407 11.1817 148.082 11.3301 148.487 11.6097C148.736 11.7805 149.064 12.1135 149.064 13.016C149.064 13.9184 148.869 14.8502 146.536 14.8502H137.598V17.2124H146.536C147.908 17.2124 149.017 16.9277 149.832 16.3652C150.56 15.8613 151.428 14.8726 151.428 13.016C151.428 11.1593 150.56 10.1706 149.832 9.66673Z" fill="#2A7AE4"/>
<path d="M107.227 11.1972H115.991V8.78496H107.227V5.16654H118.082V2.75427H104.815V17.2279H118.103V14.8156H107.227V11.1972Z" fill="#2A7AE4"/>
<path d="M156.881 11.1972H165.646V8.78496H156.881V5.16654H167.737V2.75427H154.468V17.2279H167.756V14.8156H156.881V11.1972Z" fill="#2A7AE4"/>
<path d="M120.253 5.14068H126.284V17.2366H128.698V5.14068H134.728V2.77844H120.253V5.14068Z" fill="#2A7AE4"/>
<path d="M201.992 2.77844H187.517V5.14068H193.549V17.2366H195.962V5.14068H201.992V2.77844Z" fill="#2A7AE4"/>
<path d="M102.299 2.78711H99.2604L93.1504 9.99977L99.2673 17.228H102.325L96.3012 9.99804L102.299 2.78711Z" fill="#2A7AE4"/>
<path d="M90.431 2.75427H87.8979V17.2279H90.431V2.75427Z" fill="#2A7AE4"/>
<path d="M180.803 2.76807H175.014C172.624 2.76807 170.681 4.711 170.681 7.10084V17.2331H173.074V12.2584H182.758V17.2331H185.12V11.2455C185.129 11.1851 185.136 11.1247 185.136 11.0626V7.10084C185.136 4.711 183.193 2.76807 180.803 2.76807ZM182.743 9.86511H173.074V7.10084C173.074 6.03102 173.944 5.16136 175.014 5.16136H180.803C181.873 5.16136 182.743 6.03102 182.743 7.10084V9.86511Z" fill="#2A7AE4"/>
<path d="M70.6152 7.10426V12.8934C70.6152 15.2832 72.5582 17.2261 74.948 17.2261H85.0803V14.8329H74.948C73.8782 14.8329 73.0085 13.9632 73.0085 12.8934V7.10426C73.0085 6.03444 73.8782 5.16478 74.948 5.16478H85.0803V2.77148H74.948C72.5582 2.77148 70.6152 4.71441 70.6152 7.10426Z" fill="#2A7AE4"/>
<path d="M15.383 15.725C9.76988 20.5202 5.78394 20.8584 3.74265 18.8154C1.86183 16.9346 3.4217 12.217 7.22301 7.55808L0 0.336792H4.61576L11.7905 7.5115C7.2627 12.0669 4.62266 16.9173 5.98755 18.2822C7.11776 19.4141 10.5964 17.8456 14.3494 14.6914L15.383 15.725Z" fill="#2A7AE4"/>
<path d="M28.5505 19.6626H23.9347L16.76 12.4879C21.2878 7.93424 23.9278 3.08209 22.5647 1.71893C21.4345 0.586992 17.9524 2.15721 14.1994 5.31146L13.1658 4.27788C18.7806 -0.519062 22.7683 -0.858998 24.8096 1.18401C26.6904 3.06483 25.1322 7.7824 21.3292 12.4413L28.5522 19.6626H28.5505Z" fill="#2A7AE4"/>
</svg>
